<?xml version="1.0" encoding="UTF-8" standalone="no"?><svg xmlns="http://www.w3.org/2000/svg" xmlns:xlink="http://www.w3.org/1999/xlink" fill="#fcd430" height="906.9" preserveAspectRatio="xMidYMid meet" version="1" viewBox="222.7 45.7 552.6 906.9" width="552.6" zoomAndPan="magnify"><g><g><g><g><g id="change1_1"><path d="M503.185,489.64c-16.872,5.125-33.706,10.397-51.615,14.678c0.782-4.106,4.252-3.842,6.114-7.656 c-8.996,2.392-16.846,4.479-25.663,6.823c6.042,5.004,10.7-2.739,16.869,1.143c-13.231,3.331-25.5,6.42-39.053,9.833 c2.476-2.252,3.256-3.88,3.315-6.372c-9.658,2.476-18.942,4.931-28.265,7.231c-21.666,5.343-42.781,12.57-64.189,18.794 c-7.737,2.249-15.224,5.283-19.788,12.737c-0.686,1.121-1.853,3.623-3.468,1.401c-4.222-5.807-8.955-2.999-13.503-1.093 c-3.353,1.406-6.794,2.692-10.026,4.259c-3.936,1.908-5.071,0.315-6.431-2.888c-2.029-4.78,2.326-3.958,4.164-4.672 c5.661-2.197,11.519-3.884,17.279-5.834c1.644-0.557,3.651-0.875,3.612-3.796c-5.249-0.061-9.735,2.297-14.23,4.213 c-4.216,1.796-5.709-0.206-7.152-3.634c-1.643-3.903,1.699-3.957,3.546-4.774c4.447-1.968,9.082-3.506,13.585-5.354 c1.701-0.698,4.185-0.741,4.132-4.131c-7.931,1.484-14.969,4.879-22.282,7.454c-3.495,1.231-7.461,4.285-10.615-1.011 c-0.362-0.609-2.335-0.638-3.417-0.365c-3.109,0.785-5.768,0.436-7.209-2.669c-1.318-2.84-4.367-5.841,0.136-8.777 c1.05-0.685,1.122-2.389,0.354-3.361c-4.126-5.225-6.402-11.736-13.835-14.502c-4.152-1.546-9.626-5.415-6.224-12.127 c-1.985-1.331-6.319-0.043-5.579-2.442c0.799-2.59,1.282-5.833,3.902-8.079c11.24-9.632,24.342-15.88,37.746-21.698 c4.45-1.931,5.682-6.819,7.893-10.495c6.502-10.812,10.529-22.73,13.52-34.976c0.168-0.687-0.048-1.468-0.083-2.178 c-2.611-0.403-3.305,2.887-7.374,1.722c15.633-32.504,32.81-63.951,48.467-96.13c-0.274,2.934,1.217,5.839-0.037,8.868 c2.4-2.551,5.708-4.815,4.499-8.605c-0.837-2.624-3.038,0.032-4.631-0.032c5.509-8.454,8.686-18.029,12.982-27.066 c2.672-5.62,5.286-11.268,7.957-16.889c0.721-1.516,1.929-2.554,3.527-3.123c0.359,2.524-1.931,5.246,0.403,8.024 c4.223-5.805,5.667-12.521,9.006-18.305c0.522-0.905,1.811-2.846-0.291-3.564c-1.694-0.578-2.643,1.131-2.962,2.41 c-1.107,4.448-3.287,8.245-6.294,11.628c0.945-9.379,7.387-16.556,10.126-25.241c1.147-3.638,3.165-7.002,5.023-10.997 c3.284,4.776,4.781,3.828,6.504-1.142c2.705-7.802,6.422-15.249,9.619-22.885c11.756-28.077,21.448-56.915,31.231-85.709 c2.588-7.618,4.451-15.526,6.046-23.423c0.943-4.668,3.687-3.874,6.544-3.122c3.659,0.963,1.609,3.497,1.031,5.353 c-2.593,8.325-5.316,16.609-8.008,24.903c-0.556,1.712-1.48,3.355-0.582,6.067c4.675-6.779,6.491-14.071,8.657-21.231 c0.66-2.181,0.744-5.102,4.4-4.646c3.599,0.449,6.288,1.298,4.717,5.968c-1.487,4.42-2.689,8.942-3.841,13.465 c-0.506,1.989-2.107,4.102,0.385,6.639c3.925-6.657,4.879-14.055,7.276-20.917c1.402-4.014,0.892-9.653,7.775-9.254 c0.7,0.041,1.757-1.624,2.214-2.685c1.304-3.021,3.378-4.456,6.675-3.818c3.032,0.586,6.742,0.27,6.577,5.104 c-0.047,1.359,1.037,2.485,2.287,2.435c6.634-0.264,13.284,2.383,19.87-2.195c5.359-3.725,11.281-1.667,13.487,3.112 c2.139-1.002,3.189-5.337,5.138-4.034c2.231,1.492,4.482,5.325,4.169,7.82c-1.051,8.368,1.67,16.622-1.345,25.264 c-3.015,8.644-3.535,18.253-6.594,27.065c-10.724,30.888-22.981,61.197-35.068,91.563 c-6.749,16.954-13.755,33.831-21.41,50.389c-4.56,9.863-10.017,19.577-14.206,29.382 c-4.985,11.667-11.023,23.148-14.299,35.695c-2.574,9.859-8.673,18.262-14.082,26.901c-5.218,8.336-9.588,17.203-14.946,26.958 c11.615-1.169,20.991-5.65,30.927-7.654c9.89-1.994,19.952-4.446,29.225-7.5c11.151-3.672,23.711-4.761,33.482-12.52 c1.2-0.953,2.889-1.627,4.416-1.776c9.398-0.921,18.308-4.26,27.449-6.223c14.929-3.207,29.867-7.119,44.556-11.644 c2.825-0.87,3.425-3.24,4.436-5.393c7.589-16.167,13.289-33.102,20.122-49.578c0.698-1.682,1.418-3.354,2.394-5.66 c2.969,5.548,4.584,4.052,6.343-0.449c18.309-46.867,36.835-93.648,55.096-140.534c11.558-29.677,22.923-59.432,34.044-89.275 c3.453-9.268,6.141-18.861,8.545-28.463c1.169-4.671,3.639-3.497,6.48-2.778c3.964,1.003,1.667,3.479,1.042,5.248 c-3.854,10.906-7.878,21.752-11.784,32.64c-1.145,3.193-2.842,6.265-2.61,11.603c5.168-10.39,9.1-19.554,12.514-28.95 c0.762-2.098,1.524-4.22,1.997-6.393c0.874-4.011,2.483-5.001,6.835-3.734c4.603,1.339,2.581,3.79,1.95,5.886 c-2.107,6.997-4.492,13.91-6.779,20.852c-0.813,2.47-2.126,4.889-0.291,8.393c4.6-10.416,8.208-20.523,11.339-30.831 c1.093-3.598,1.08-8.504,7.265-7.45c0.662,0.113,1.698-1.537,2.45-2.459c3.845-4.714,10.393-3.953,12.601,1.631 c0.577,1.458,1.164,2.911,2.635,2.928c6.011,0.071,11.859,3.198,18.085,0.246c4.88-2.314,10.244-4.008,14.32,1.837 c0.697,1,1.202,0.553,1.836-0.036c1.241-1.152,3.103-3.709,4.174-1.706c1.256,2.349,3.835,4.035,3.896,7.096 c0.195,9.681-0.387,19.165-2.463,28.768c-2.296,10.623-6.407,20.534-10.237,30.471 c-21.764,56.473-43.991,112.768-66.265,169.043c-6.345,16.032-13.178,31.87-18.956,48.127c-1.519,4.274-2.009,7.243,4.264,5.11 c1.588-0.54,3.575,0.085,5.378,0.189c2.17,0.126,5.689-2.164,6.167,0.914c0.536,3.458,3.092,7.881-2.779,10.755 c-5.712,2.796-10.416,7.2-17.571,6.93c-2.897-0.109-5.569,2.876-7,5.814c0.78,2.016,2.143,0.904,3.206,1.036 c2.485,0.31,4.259-0.839,5.638,3.852c1.465,4.983-1.454,6.794-1.845,9.925c-1.158,9.281-8.956,8.378-14.239,11.154 c-2.372,1.246-3.907,2.615-4.804,5.036c-1.764,4.762-3.684,9.466-5.458,14.224c-0.589,1.58-2.647,3.461-0.631,4.839 c1.457,0.996,3.505,2.015,5.696,1.195c8.764-3.276,18.482-2.757,27.079-6.852c1.935-0.922,4.307-1.078,6.504-1.259 c3.062-0.252,4.302,2.691,5.14,4.501c1.132,2.446-2.15,2.195-3.531,2.922c-8.713,4.587-18.445,6.146-27.764,8.851 c-6.48,1.881-12.351,5.006-18.59,7.328c-1.82,0.677-2.811,2.267-3.496,4.023c-3.471,8.895-8.677,17.122-11.723,26.031 c-2.637,7.713-4.493,15.716-7.501,23.425c-5.018,12.861-10.92,25.75-13.282,39.185c-3.178,18.075-13.545,33.32-17.216,51.001 c-1.745,8.407-7.697,15.088-10.26,23.274c-11.271,36.001-24.455,71.356-36.108,107.24 c-16.628,51.205-30.553,103.142-44.907,154.99c-2.97,10.727-8.089,21.22-11.575,32.077c-1.377,4.289-1.938,8.733-3.19,12.997 c-0.908,3.094,1.309,8.424-5.1,8.504c-0.445,0.006-1.011,2.485-1.262,3.861c-1.828,10.021-6.85,19.056-8.494,29.206 c-2.984-0.483-3.653-4.103-6.899-3.615c-2.638,0.397-2.019-2.236-1.921-3.532c1.045-13.85-0.867-27.927,4.726-41.424 c3.35-8.083,1.501-17.254,3.188-25.877c4.908-25.092,10.075-50.121,15.943-75.005c0.229-0.97,0.35-1.965,0.22-3.021 c-10.404,32.512-15.536,66.432-25.704,100.741c-2.698-7.717-3.38-7.915-7.958-3.882c-1.573-3.299-0.804-6.817-1.277-10.164 c-0.373-2.641,1.194-6.105-3.497-7.118c-1.937-0.418-0.776-3.178-0.506-4.924c5.247-33.959,13.836-67.198,21.751-100.576 c3.79-15.983,8.107-31.841,12.175-47.758c0.188-0.736,0.271-1.498-0.079-2.427c-3.636,6.397-4.968,13.793-8.844,20.063 c-1.138,1.841-1.985,2.316-4.355,2.966c-4.713,1.294-8.517,5.505-9.797,10.77c-1.636,6.728-3.189,13.518-6.127,19.764 c-4.931,10.483-7.354,21.979-12.353,32.248c-4.631,9.513-5.294,19.879-9.087,29.34c-5.668,14.14-6.803,29.244-10.549,43.772 c-2.115,8.202-2.089,8.208-10.568,12.785c1.407-9.517,2.187-18.331,4.082-26.897c4.3-19.437,9.937-38.605,13.582-58.153 c4.992-26.775,13.916-52.487,19.829-78.972c3.02-13.528,4.881-27.316,7.404-41.781c-4.539,3.105-3.763,8.891-8.701,11.595 c1.455-9.443,3.711-18.112,6.413-26.61c8.481-26.68,16.835-53.395,25.786-79.934c8.496-25.19,16.754-50.472,26.29-75.27 c3.899-10.139,5.965-21.054,11.908-30.404c1.105,4.305-0.653,8.396-1.135,12.633c2.08-3.142,4.12-6.242,5.363-9.633 c0.641-1.75,2.795-4.483,0.172-5.875c-1.997-1.06-3.21,1.693-4.548,3.07c-0.26-2.32-1.657-2.602-3.421-1.727 c-2.442,1.211-5.103,1.098-7.668,1.528c2.521-5.047,9.844-3.823,12.259-9.093c-3.585,6.628-12.977,0.38-16.336,7.303 C499.884,489.712,501.7,489.26,503.185,489.64z M674.54,154.713c-2.551,0.801-2.899,3.284-3.732,5.235 c-3.5,8.199-7.267,16.324-10.103,24.757c-4.092,12.167-10.415,23.55-12.621,36.383c9.934-21.717,18.496-43.971,26.341-66.543 c2.419-5.971,5.937-11.563,6.169-18.285C678.193,142.281,674.14,147.75,674.54,154.713z M671.699,122.455 c-7.408,8.391-9.453,19.193-13.099,29.264c-0.272,0.751-0.077,1.641,0.951,1.864c0.941,0.204,1.553-0.286,1.783-1.159 C664.03,142.178,670.467,133.243,671.699,122.455z M426.112,151.058c-5.013,13.254-11.847,25.869-14.882,39.878 C418.077,178.361,422.188,164.754,426.112,151.058z M630.91,264.507c5.996-10.658,9.297-22.464,13.082-34.093 C639.111,241.532,633.605,252.397,630.91,264.507z M408.15,158.064c4.498-4.336,6.253-9.998,6.616-16.261 C409.606,145.837,409.763,152.281,408.15,158.064z M683.862,126.99c4.619-8.839,9.349-17.637,11.719-27.317 c-0.539-0.201-1.079-0.401-1.618-0.602C690.596,108.378,687.229,117.684,683.862,126.99z M572.519,350.859 c-5.718,4.909-7.805,10.177-7.024,16.611C569.709,362.799,570.836,357.534,572.519,350.859z M626.191,277.299 c-5.313,7.183-7.665,15.45-9.421,23.947C619.911,293.264,623.051,285.282,626.191,277.299z M336.885,507.323 c6.564-1.86,13.737-2.002,19.567-6.236C349.527,501.832,342.763,503.077,336.885,507.323z M509.89,509.453 c-3.942,6.231-4.273,8.88-1.685,13.541C509.3,518.518,512.948,514.732,509.89,509.453z M477.341,491.24 c-6.178,1.273-10.145,2.861-12.371,4.953C473.582,496.488,473.582,496.488,477.341,491.24z M409.641,195.927 c-4.496,5.993-6.639,11.959-6.614,17.666C406.219,208.23,407.5,202.619,409.641,195.927z M361.282,500.083 c5.575-1.047,11.405-1.248,17.418-5.529C371.614,495.284,366.485,497.807,361.282,500.083z M292.687,443.651 c3.277,0.09,5.615-1.016,7.992-1.942c0.798-0.311,1.375-0.943,0.838-1.799c-0.267-0.427-1.208-0.956-1.421-0.812 C297.822,440.637,293.931,439.401,292.687,443.651z M331.361,524.193c-5.137-1.75-8.364-0.879-11.208,4.379 C324.381,526.92,327.478,525.71,331.361,524.193z" transform="matrix(.99841 0 0 .99946 0 0)"/></g></g></g></g></g></svg>