<?xml version="1.0" encoding="UTF-8" standalone="no"?><svg xmlns="http://www.w3.org/2000/svg" xmlns:xlink="http://www.w3.org/1999/xlink" fill="#fcd430" height="932.3" preserveAspectRatio="xMidYMid meet" version="1" viewBox="239.6 28.5 518.9 932.3" width="518.9" zoomAndPan="magnify"><g><g><g><g><g id="change1_1"><path d="M539.361,820.81c-12.852,7.117-25.579,14.474-38.607,21.251c-6.537,3.4-11.62,6.97-10.393,15.45 c0.461,3.185-1.49,6.185-1.901,9.447c-0.452,3.584-5.015,2.195-7.629,3.332c-2.207,0.96-2.705-1.309-3.152-3.008 c-0.342-1.296-0.865-2.553-1.115-3.864c-1.652-8.65-1.926-8.888-9.876-4.649c-7.75,4.133-15.339,8.567-23.047,12.895 c-1.565-1.708,0.723-3.422-0.759-5.125c-0.422-0.399-1.142-0.056-1.791,0.326c-21.225,12.511-42.997,24.091-63.515,37.805 c-18.281,12.218-36.641,24.327-54.311,37.417c-6.565,4.864-12.799,10.264-18.66,15.96c-3.482,3.384-4.485,0.085-6.105-1.403 c-2.835-2.604,0.298-3.542,1.704-4.632c8.42-6.522,16.921-12.939,25.395-19.392c-0.286-0.496-0.571-0.992-0.857-1.488 c-3.513,2.15-7.124,4.157-10.511,6.49c-3.304,2.276-6.56,4.689-9.506,7.402c-3.115,2.867-4.833,1.011-7.069-1.147 c-3.024-2.919,0.096-4.077,1.471-5.311c3.841-3.449,7.963-6.583,11.95-9.872c1.394-1.149,3.272-2.053,2.785-5.049 c-7.18,3.91-12.795,9.207-18.858,13.899c-2.822,2.184-5.406,6.611-9.981,2.306c-0.432-0.407-2.217,0.255-3.138,0.811 c-2.431,1.471-4.908,1.751-6.677-0.53c-1.603-2.067-5.793-3.421-2.838-7.396c0.943-1.269,0.543-2.864-0.607-3.602 c-4.747-3.048-8.185-7.905-14.393-9.026c-4.791-0.865-11.099-1.089-10.538-8.888c0.09-1.248-0.899-0.719-1.58-0.582 c-1.597,0.321-4.629,1.314-4.387-0.351c0.39-2.682-0.792-5.516,0.836-8.108c5.775-9.192,12.4-17.7,20.576-24.845 c5.021-4.387,10.351-8.449,15.756-12.361c29.345-21.238,60.411-39.827,91.3-58.647c19.091-11.631,38.838-22.192,58.394-33.046 c3.002-1.666,4.555-3.728,5.108-6.99c3.521-20.771,8.053-41.424,10.416-62.324c2.339-20.68,8.624-40.367,12.634-60.602 c4.201-21.2,9.299-42.219,12.547-63.614c1.199-7.895,2.869-15.717,3.142-24.065c-2.189,5.062-4.377,10.123-6.566,15.185 c-1.238-6.256,0.907-12.062,2.216-17.853c5.568-24.636,12.698-48.867,19.305-73.238c13.321-49.134,27.317-98.076,42.16-146.758 c4.105-13.463,6.256-27.658,13.038-40.278c-1.077,6.71-0.999,13.611-3.348,20.132c4.765-9.652,8.895-19.458,8.174-30.74 c-1.196,2.329-2.392,4.657-3.588,6.986c1.758-11.554,6.745-22.234,9.082-33.632c0.335-1.633,0.751-3.25,1.525-6.573 c-8.523,10.755-16.265,19.977-23.398,29.649c-11.724,15.896-24.774,30.713-36.904,46.263 c-18.275,23.425-38.358,45.303-57.257,68.188c-2.918,3.534-5.059,7.586-7.997,11.144c-3.005,3.639-4.284-0.169-6.004-0.899 c-2.608-1.107-0.819-2.76,0.272-4.026c10.25-11.886,20.533-23.745,30.766-35.645c1.555-1.808,3.342-3.529,3.637-6.196 c-10.822,10.773-21.601,21.528-31.101,33.486c-1.431,1.801-2.47,4.447-5.852,1.872c-2.853-2.173-3.773-3.743-1.247-6.713 c5.954-7.001,11.772-14.119,17.591-21.234c1.628-1.99,3.694-3.854,3.328-8.118c-8.588,10.323-17.379,19.019-24.767,28.976 c-2.156,2.906-3.945,7.021-9.001,4.121c-0.569-0.326-2.004,0.783-3.002,1.296c-4.683,2.407-10.303-0.684-10.279-5.878 c0.007-1.501-0.006-2.918-1.265-3.453c-5.118-2.174-9.211-6.546-15.379-6.555c-5.156-0.008-10.96,0.354-12.022-7.025 c-0.197-1.368-1.012-0.501-1.572-0.33c-1.515,0.462-3.377,2.433-4.473,0.246c-1.022-2.04-1.91-4.976-1.204-6.913 c2.947-8.08,5.888-16.09,10.774-23.463c6.923-10.447,15.508-19.43,23.606-28.77c34.662-39.973,67.238-81.627,100.114-123.041 c25.013-31.509,49.454-63.478,74.78-94.729c14.359-17.719,29.945-34.458,50.921-44.844 c35.947-17.799,76.284,7.103,76.486,47.252c0.111,22.169-6.516,43.136-12.202,64.166c-6.44,23.82-13.97,47.346-21.163,70.958 c-1.166,3.826-2.932,7.486-4.618,11.132c-5.562,12.031-6.35,25.377-10.741,37.831c-6.037,17.122-10.807,34.79-14.71,52.534 c-2.742,12.466-5.219,24.959-9.768,36.864c-3.28,8.585-5.74,17.321-7.634,26.27c-2.149,10.152-7.323,19.285-10.195,29.132 c-15.481,53.083-30.836,106.2-45.541,159.512c-9.781,35.459-18.679,71.106-27.24,106.854 c-2.389,9.977-4.015,20.138-6.307,31.828c6.054-4.138,12.209-4.159,17.301-6.923c20.993-11.395,42.865-21.011,63.698-32.811 c20.436-11.576,40.268-24.455,62.189-33.295c8.339-3.363,16.545-8.072,25.218-9.306c8.696-1.236,17.495-2.695,26.328-3.239 c3.83-0.236,7.61-0.596,11.399-1.232c2.567-0.431,5.818-1.922,7.157,2.271c0.139,0.434,1.323,0.84,1.961,0.76 c5.665-0.705,10.932,1.288,16.329,2.336c1.684,0.327,5.394,0.153,4.487,1.778c-1.516,2.717,0.835,7.51-3.97,8.32 c-7.138,1.203-13.936,4.654-21.365,3.768c-7.225-0.861-13.287,2.406-19.711,4.658c-16.45,5.767-32.295,12.785-47.017,22.246 c7.652-3.5,15.247-7.115,23.008-10.367c8.846-3.706,17.9-6.735,27.125-9.311c3.401-0.95,6.721-1.051,10.348,0.378 c-1.208,1.592-3.769,3.415-0.981,5.072c3.483,2.071,1.428,2.961-0.364,4.282c-2.502,1.844-6.566,2.346-5.271,7.333 c0.383,1.474-2.487,1.937-4.055,2.527c-25.965,9.765-49.417,24.187-72.55,39.2c-0.758,0.492-1.419,1.133-2.866,2.304 c3.189,0.281,4.696-1.385,6.539-1.992c3.508-1.157,6.627-2.81,10.617,0.345c2.57,2.032,6.781,2.442,10.621-0.148 c8.849-5.969,19.521-6.738,29.514-9.422c1.279-0.344,2.629-0.547,3.812-1.101c8.405-3.936,17.753-4.775,26.349-8.09 c1.199-0.462,2.64-0.502,3.95-0.425c3.266,0.192,3.73,3.256,4.342,5.365c0.577,1.99-2.081,1.613-3.323,2.042 c-9.021,3.115-18.436,5.279-26.949,9.627c-11.181,5.711-22.014,12.102-33.003,18.19c-8.426,4.668-15.05,11.656-22.526,17.545 c-1.424,1.122-2.54,2.637-3.989,4.174c3.157,1.257,5.587-1.877,8.547,0.067c-4.368,4.421-9.405,7.772-14.633,10.782 c-13.257,7.632-26.918,14.491-40.531,21.463c-11.552,5.916-22.93,12.258-34.502,18.173 c-8.452,4.321-16.557,9.446-25.784,12.139c2.455-1.913,3.934-4.794,6.605-6.611c-3.171,1.16-6.769,0.992-9.233,3.687 c-0.843,0.922-2.713,1.525-2.055,2.966C536.35,821.452,538.092,820.849,539.361,820.81z M492.528,292.827 c2.344-0.772,3.527-2.851,5.026-4.543c15.885-17.932,29.718-37.522,45.038-55.915c3.49-4.19,6.289-8.957,9.719-13.91 c-2.704,0.606-3.468,2.504-4.583,3.883c-7.585,9.382-15.383,18.612-22.538,28.316c-10.564,14.326-22.857,27.311-32.52,42.326 c-5.293,4.757-9.685,10.219-12.905,16.593C484.449,304.325,489.914,299.669,492.528,292.827z M497.267,596.315 c-4.154,7.828-5.65,16.585-9.663,24.416c-1.196,2.334-0.07,7.813-5.819,4.888c-0.167-0.085-0.81,0.306-0.888,0.574 c-1.463,5.036-6.497,8.019-7.527,13.325c-2.918,15.041-8.417,29.376-12.367,44.065c-4.881,18.151-11.574,35.931-13.955,54.757 c-0.647,5.119-1.751,10.194-2.934,15.221c-0.306,1.302-0.273,2.703-1.794,4.075c-1.533,1.382-2.554,5.559-1.577,6.983 c1.465,2.134,3.968-0.469,5.897-1.477c4.065-2.124,7.887-5.249,12.203-6.229c6.472-1.47,7.739-5.647,8.539-11.082 c5.097-34.662,12.092-68.98,19.154-103.275C489.725,627.062,493.666,611.724,497.267,596.315z M481.282,327.722 c13.116-10.363,21.642-24.702,31.793-37.678C500.499,300.871,490.913,314.265,481.282,327.722z M379.811,879.463 c-11.988,5.52-22.458,13.382-32.939,21.228C358.388,894.442,369.774,887.992,379.811,879.463z M488.688,738.829 c0.618,0.113,1.237,0.225,1.855,0.338c2.809-16.121,5.618-32.242,8.427-48.364c-0.32-0.057-0.641-0.115-0.961-0.172 C494.902,706.697,491.795,722.763,488.688,738.829z M337.592,922.525c8.152-1.521,12.488-6.583,17.686-10.112 c0.23-0.156,0.255-1.119,0.023-1.348c-0.51-0.502-1.305-1.117-2.013-0.472C348.83,914.654,342.347,915.948,337.592,922.525z M536.079,319.823c-4.617,6.938-3.663,13.865-3.79,20.864C535.482,334.211,536.273,327.542,536.079,319.823z M446.532,349.624 c6.978-4.892,10.572-12.524,15.598-18.997C456.428,336.551,450.306,342.137,446.532,349.624z M508.209,424.266 c0.151,0.043,0.302,0.086,0.454,0.129c1.795-6.021,3.631-12.03,5.336-18.077c0.223-0.791,1.015-2.231-1.175-2.293 c-1.734-0.049-1.187,0.986-1.332,1.8C510.401,411.972,509.304,418.119,508.209,424.266z M404.125,864.676 c-8.169,3.246-13.643,7.634-19.189,11.904C391.358,873.727,397.653,870.669,404.125,864.676z M331.016,911.654 c-5.016,2.592-10.233,4.905-13.582,9.805C322.901,919.491,326.43,914.84,331.016,911.654z M559.683,207.487 c4.399-2.618,7.332-6.346,8.801-11.184C565.55,200.031,562.617,203.759,559.683,207.487z" transform="matrix(.9981 0 0 .9993 0 0)"/></g></g></g></g></g></svg>