<?xml version="1.0" encoding="UTF-8" standalone="no"?><svg xmlns="http://www.w3.org/2000/svg" xmlns:xlink="http://www.w3.org/1999/xlink" fill="#fcd430" height="810" preserveAspectRatio="xMidYMid meet" version="1" viewBox="235.4 95.2 528.8 810.0" width="528.8" zoomAndPan="magnify"><g><g><g><g><g id="change1_1"><path d="M620.439,704.688c5.991-12.65,12.567-25.002,18.047-37.923c3.934-9.276,6.024-19.202,10.64-28.178 c0.194,4.393,0.386,8.781,0.578,13.168c2.515-4.63,6.739-9.429-0.552-13.151c-0.542-6.36,2.184-12.107,3.64-18.046 c2.134-8.705,3.935-17.418,4.822-26.338c0.23-2.311,1.064-4.561,1.932-8.113c3.354,7.472-0.358,14.021,2.052,21.219 c4.392-21.47,5.521-41.86,2.257-62.427c-2.901,11.793,1.159,24.075-2.971,36.429c-2.117-15.496,0.699-30.545-1.782-45.444 c-2.453-14.727-4.966-29.383-10.917-44.299c3.057,2.2,3.685,5.471,7.01,5.504c1.428-1.524,0.184-3.008-0.365-4.396 c-10.221-25.84-25.115-48.416-48.539-63.936c-15.88-10.522-33.874-16.576-52.8-19.61c-24.285-3.893-48.497-2.073-72.665,0.873 c-8.853,1.079-16.474,5.831-23.588,10.814c-15.633,10.95-30.959,22.337-45.05,35.297c-1.937,1.782-3.908,5.005-7.044,3.843 c-4.167-1.543-4.192-5.291-0.369-8.195c11.579-8.794,23.202-17.528,34.78-26.324c2.849-2.164,5.59-4.472,8.38-6.714 c-0.341-0.444-0.682-0.888-1.023-1.332c-7.11,4.855-14.304,9.593-21.304,14.603c-5.743,4.109-11.432,8.334-16.804,12.907 c-3.249,2.766-4.796,1.816-7.477-0.913c-3.526-3.59-0.164-4.834,1.556-6.261c7.193-5.97,14.59-11.695,21.91-17.512 c2.596-2.063,5.385-3.963,6.899-9.203c-10.835,8.381-20.485,15.853-30.145,23.312c-4.098,3.165-6.855,7.778-14.148,4.901 c-3.254-1.283-8.386,1.312-11.491-3.304c-0.562-0.836-1.9-1.623-1.456-2.527c2.513-5.116-2.61-6.574-3.975-9.717 c-2.473-5.695-7.491-5.124-11.305-7.048c-4.785-2.413-11.042-2.669-10.77-10.237c0.028-0.791-0.5-0.984-1.22-0.861 c-1.905,0.324-5.45,1.496-4.969-0.98c0.59-3.033,0.213-6.148,1.736-9.536c3.667-8.159,9.519-14.039,15.522-19.966 c12.147-11.993,26.263-21.547,40.009-31.544c2.119-1.541,4.595-2.709,6.147-5.247c-3.97-1.612-6.699-1.313-9.455,2.053 c-4.087,4.994-10.551,6.958-15.755,10.615c-8.7,6.114-16.098,13.164-22.368,21.598c-2.098,2.822-4.274,4.927-8.364,3.154 c-2.462-1.067-3.154-1.623-1.759-4.328c3.015-5.848,7.856-10.165,11.779-15.242c9.47-12.258,19.848-23.743,29.784-35.601 c4.158-4.963,6.801-11.196,10.173-16.92c-2.726-2.166-4.775,1.911-7.582-1.233c17.777-22.676,41.739-39.927,60.806-63.412 c-17.954,3.415-34.613,6.543-51.254,9.76c-22.146,4.282-44.323,8.424-66.383,13.115c-4.979,1.059-5.095-1.9-5.785-4.665 c-0.981-3.935,2.401-2.962,4.338-3.301c9.195-1.608,18.412-3.091,27.61-4.684c1.085-0.188,2.59,0.071,3.028-2.069 c-7.168-1.538-13.869,1.107-20.647,2.11c-3.853,0.57-5.966,0.593-7.06-4.088c-1.241-5.31,2.818-4.542,4.942-4.852 c10.588-1.546,20.342-6.047,30.697-8.51c-7.161-1.016-13.791,2.202-20.749,2.876c-5.539,0.537-10.952,2.277-16.481,3.039 c-3.387,0.467-7.52,2.391-9.418-2.959c-0.471-1.327-2.493-1.399-3.951-1.248c-3.492,0.361-6.178-0.662-7.323-4.194 c-1.049-3.238-2.93-6.784,2.119-8.613c0.498-0.18,1.235-1.061,1.13-1.347c-1.683-4.558-2.549-9.861-5.517-13.378 c-3.108-3.683-7.76-6.272-10.716-10.31c-1.978-2.703-3.714-5.962,0.526-8.48c-1.395-1.724-3.289-1.297-4.758-1.969 c-1.642-0.751-2.01-1.644-0.721-3.329c2.876-3.758,6.294-6.515,10.99-7.615c1.633-0.382,4.341,0.756,3.735-3.21 c-0.234-1.528,3.328-1.7,5.291-2.291c40.55-12.201,82.992-15.014,123.984-25.043c10.593-2.592,21.337-4.848,31.941-7.17 c7.889-1.728,16.918-3.654,24.236-9.377c4.025-3.148,10.696-3.359,15.832-3.775c10.628-0.86,20.576-4.147,30.747-6.397 c20.62-4.562,40.997-10.241,61.419-15.67c4.128-1.097,8.677-1.506,11.937-4.924c0.511-0.535,1.817-1.186,2.053-0.979 c4.094,3.579,9.266,2.934,13.778,4.227c4.115,1.179,8.069,0.656,11.968,1.555c1.839,0.424,3.41-0.188,3.808,2.647 c0.588,4.188,1.093,8.693,5.735,10.905c0.45,0.215,1.013,1.175,0.87,1.508c-2.4,5.579,2.332,6.606,4.845,9.928 c4.354,5.754,9.319,3.896,14.019,4.351c6.93,0.671,11.38,3.495,12.064,9.162c2.178,0.197,5.324-3.103,5.981-0.754 c0.784,2.804,1.294,6.408-0.342,9.731c-5.454,11.081-12.488,21.001-20.544,30.337c-5.3,6.142-11.004,11.827-16.922,17.321 c-29.224,27.13-58.344,54.377-87.86,81.186c-5.903,5.361-11.535,11.068-18.326,15.711c-5.228,3.574-9.559,9.418-13.865,14.592 c-2.632,3.162,0.972,3.23,2.773,3.282c10.635,0.306,21.103,2.015,31.543,3.793c52.261,8.9,97.516,31.033,132.809,71.432 c27.363,31.321,44.66,67.617,53.622,108.249c6.595,29.902,9.604,60.024,7.115,90.439c-2.352,28.742-4.979,57.636-16.911,84.512 c-3.177,7.156-3.031,15.085-5.745,22.22c-10.443,27.451-23.746,53.458-38.51,78.884c-8.769,15.103-17.6,30.014-30.045,42.147 c-13.923,13.573-26.08,29.058-42.836,39.681c-54.54,34.576-113.567,53.07-178.568,52.141 c-43.86-0.626-84.971-11.183-122.436-33.508c-45.805-27.294-75.486-66.825-84.876-120.316 c-3.43-19.54-6.442-39.309-2.64-58.863c5.51-28.336,14.459-55.686,30.252-80.279c1.32-2.056,1.94-5.754,6.198-3.578 c0.439,0.224,2.988-3.086,4.163-4.999c8.11-13.207,20.26-22.996,29.284-36.195c1.667,3.427,0.013,7.134,4.074,8.527 c1.717,0.589,0.13,2.672-0.528,3.733c-10.936,17.626-18.835,37.035-31.604,53.599c-3.568,4.628-5.549,10.297-7.031,15.873 c-8.902,33.489-10.412,67.223-2.024,101.047c3.596,14.502,9.192,28.253,17.752,40.74 c-19.241-33.895-23.182-70.455-18.88-108.323c1.623-14.283,4.521-28.36,14.499-39.838c2.129,2.117-2.692,4.747,0.337,6.685 c3.615,2.314,3.564-3.262,6.798-3.076c-1.036,6.156-2.222,12.16-2.957,18.218c-0.22,1.811-2.138,4.752,2.422,5.347 c1.875,0.245,0.768,3.651,0.497,5.644c-3.72,27.335-2.741,54.329,6.358,80.617c11.221,32.42,33.562,54.842,63.711,70.1 c7.543,3.817,15.13,7.529,23.645,9.013c-6.977-4.56-15.348-6.603-21.728-12.228c-2.544-2.243-4.681-3.473-5.017-8.038 c-0.316-4.299-3.692-9.56-8.142-12.509c-19.408-12.864-27.674-32.95-32.858-54.006c-2.55-10.358-5.466-21.554-3.944-32.422 c2.126-15.179-0.375-30.994,5.983-45.574c2.6-5.963,4.82-12.532,13.607-11.735c-16.255,42.962-15.036,83.959,16.59,119.575 c18.577,20.921,44.286,27.616,72.75,28.83c-3.38-4.006-8.604-2.667-10.629-7.372c6.198,0.543,12.083,0.948,17.942,1.589 c32.423,3.546,64.089-0.538,94.439-11.83c21.702-8.075,41.728-19.909,57.818-37.052c10.351-11.028,20.929-21.976,28.395-35.413 c1.558-2.804,4.241-4.983,6.401-7.442c-1.599,5.219-3.58,10.267-6.372,15.001c5.751-7.111,13.05-13.285,14.157-23.644 C622.966,701.47,621.746,703.129,620.439,704.688z M478.838,388.116c18.6-2.57,37.411-2.828,56.221-1.783 c19.028,1.057,37.502,5.445,55.807,10.421C554.582,380.936,516.901,382.131,478.838,388.116z M523.551,400.519 c-20.864-3.496-44.876-1.637-51.02,3.972C490.08,404.25,506.606,398.985,523.551,400.519z M636.278,425.071 c-9.172-11.177-21.715-17.427-34.44-23.409C613.874,408.653,625.004,416.967,636.278,425.071z M468.805,390.721 c-10.04,0.996-26.263,10.283-30.978,17.922C448.48,401.899,457.371,394.087,468.805,390.721z M377.168,230.137 c0.092,0.517,0.184,1.033,0.276,1.55c10.058-1.918,20.392-2.287,30.214-5.529c-0.112-0.621-0.224-1.241-0.336-1.862 C397.271,226.244,387.219,228.191,377.168,230.137z M665.218,463.283c-4.165-8.365-8.518-16.593-15.436-23.023 C654.325,448.354,660.297,455.477,665.218,463.283z M605.469,731.202c-5.971,5.603-7.196,7.932-7.195,14.549 C601.388,740.559,606.496,738.177,605.469,731.202z M390.824,244.411c-3.851-1.098-7.597-1.77-11.463-1.113 c-1.524,0.259-4.027-0.013-3.775,2.015c0.288,2.323,2.715,1.91,4.547,1.512C383.659,246.058,387.175,245.238,390.824,244.411z M554.252,782.542c-8.394-0.993-10.913,7.014-17.063,8.26C542.968,788.961,548.577,786.797,554.252,782.542z M658.673,519.716 c0.167,0.117,0.332,0.319,0.501,0.323c0.143,0.003,0.335-0.197,0.431-0.353c2.141-3.477,1.81-7.079,0.005-10.447 c-0.661-1.234-1.068,0.567-1.561,0.919c-3.949,2.821,0.602,5.616,0.124,8.466C658.118,518.952,658.493,519.352,658.673,519.716 z" transform="matrix(.9999 0 0 .99959 0 0)"/></g></g></g></g></g></svg>