<?xml version="1.0" encoding="UTF-8" standalone="no"?><svg xmlns="http://www.w3.org/2000/svg" xmlns:xlink="http://www.w3.org/1999/xlink" fill="#fcd430" height="934.7" preserveAspectRatio="xMidYMid meet" version="1" viewBox="157.8 31.2 683.2 934.7" width="683.2" zoomAndPan="magnify"><g><g><g><g><g id="change1_1"><path d="M545.733,793.382c-19.386,8.724-38.695,17.627-58.21,26.052c-5.103,2.203-9.725,6.148-16.184,6.054 c1.053-4.48,6.35-4.267,8.222-9.099c-13.071,4.466-23.991,10.729-34.94,17.13c8.346,1.275,13.519-7.249,22.171-5.525 c-17.091,8.175-34.181,16.351-51.343,24.56c-1.465-1.996,1.558-4.335-0.332-5.555c-1.884-1.216-3.676,0.79-5.362,1.674 c-13.925,7.298-28.057,14.243-41.653,22.114c-13.971,8.088-27.382,17.144-41.087,25.698 c-24.311,15.175-48.182,31.017-71.187,48.108c-7.617,5.659-14.711,12.081-21.642,18.584c-3.375,3.167-5.175,2.305-7.707-0.718 c-3.523-4.207,0.969-4.866,2.735-6.261c8.353-6.599,16.934-12.909,25.356-19.422c1.803-1.394,4.259-2.328,4.926-5.866 c-8.151,4.307-15.336,8.888-21.993,14.344c-7.638,6.262-7.668,6.225-15.224,0.155c-1.889,2.449-3.777,4.896-6.144,7.965 c-0.956-3.117-0.177-6.221-3.577-7.893c-2.926-1.438-5.089-1.763-8.316-0.907c-4.402,1.167-9.635-5.082-8.271-9.564 c0.911-2.995-0.783-3.853-2.262-5.894c-5.26-7.262-13.451-7.975-20.738-10.865c-3.904-1.549-8.002-3.451-6.426-9.178 c-2.219-1.556-6.698,2.368-6.703-0.862c-0.005-3.071-1.833-6.962,1.709-10.232c5.434-5.015,7.581-12.41,12.454-18.282 c8.546-10.298,18.776-18.173,29.226-25.855c13.243-9.737,27.183-18.527,40.891-27.622c3.381-2.243,6.296-4.75,8.596-8.182 c41.879-62.487,86.651-122.888,131.759-183.047c2.586-3.449,5.028-7.006,7.09-10.841c-5.704,4.064-8.695,10.64-13.873,14.914 c-5.843,4.824-8.769,12.615-19.017,13.375c-5.97,0.443-13.02,6.73-17.288,13.507c-7.257,11.524-16.113,21.953-25.751,31.443 c-11.472,11.295-20.466,24.55-31.074,36.49c-1.839,2.07-3.787,4.042-5.685,6.06l-0.205,0.172 c-1.544-1.094-2.532-0.171-3.22,1.055c-5.791,10.336-12.955,19.788-20.479,28.791c-16.224,19.413-29.508,40.837-43.858,61.542 c-4.847,6.993-9.52,14.609-19.674,15.532c0.22-2.642,1.975-4.869,3.377-7.219c12.326-20.658,25.916-40.45,39.911-60.016 c12.947-18.101,26.956-35.479,39.177-54.024c22.924-34.788,50.248-66.232,74.158-100.224 c12.787-18.179,24.663-37.002,36.931-55.547c0.463-0.7,1.061-1.488,0.104-2.729c-5.353,3.275-8.037,9.76-14.949,11.615 c4.479-6.405,8.726-12.989,13.478-19.185c18.009-23.479,36.466-46.619,54.235-70.277 c37.685-50.175,73.464-101.596,103.564-156.86c7.861-14.433,13.216-30.124,22.607-43.686 c-2.889,7.626-3.265,15.998-7.301,23.264c6.86-10.699,13.336-21.525,14.494-34.803c-1.863,2.907-3.726,5.814-5.588,8.721 c6.207-17.794,13.176-35.362,16.685-53.981c4.194-22.252,6.068-44.47-1.808-66.41c-0.28-0.781-0.36-1.634-0.69-3.195 c5.989,1.752,5.082,8.384,9.133,10.959c-1.872-16.117-13.717-30.537-25.761-30.566c4.045,6.238,13.836,5.928,15.036,15.636 c-9.081-8.996-18.85-14.054-31.25-14.75c-11.657-0.654-22.777,1.914-34.279,2.746c4.061-1.49,7.19-4.226,10.299-6.99 c-13.262,0.151-25.418,5.624-37.499,10.016c-54.34,19.754-98.856,53.631-136.307,97.364 c-15.011,17.529-26.727,37.122-37.777,57.223c-13.905,25.293-16.393,52.195-11.712,80.207 c1.608,9.624,0.945,19.504,3.157,29.095c0.775,3.359,0.682,6.2-4.448,6.452c-5.737,0.282-4.001-3.747-4.189-6.235 c-1.357-17.952-2.438-35.924-3.702-53.883c-0.165-2.351,0.158-4.882-1.859-7.794c-1.215,5.704-0.527,10.739-0.317,15.682 c0.558,13.12,1.261,26.239,2.253,39.331c0.293,3.863-0.364,5.382-4.555,6.16c-5.138,0.953-5.081-2.161-5.375-5.199 c-1.008-10.411-1.857-20.838-2.763-31.259c-0.325-3.741-0.489-7.521-3.725-12.468c0,4.282-0.293,6.985,0.049,9.604 c1.698,13.008,1.081,26.192,3.122,39.184c0.496,3.159,1.825,7.405-3.735,8.349c-1.314,0.223-1.599,1.94-2.038,3.228 c-2.335,6.845-8.494,8.595-13.716,3.833c-1.054-0.961-2.216-2.101-3.402-1.638c-6.554,2.561-14.074,2.258-19.449,8.422 c-4.956,5.684-11.203,5.62-15.199,1.327c-1.504,1.949-0.894,6.313-4.107,5.807c-2.604-0.41-6.37-2.842-6.941-5.068 c-2.023-7.882-7.32-14.09-8.687-22.599c-6.961-43.33-9.864-85.851,6.861-128.203c22.932-58.068,59.317-106.058,104.949-147.662 c22.921-20.897,47.618-39.553,74.324-55.28c39.982-23.547,82.529-41.022,128.784-46.836 c43.562-5.476,85.184,0.518,121.781,27.627c26.354,19.521,41.709,46.397,51.52,76.846c8.262,25.642,9.554,51.915,5.107,78.508 c-2.193,13.115-0.461,26.592-4.063,39.659c-5.675,20.59-11.235,41.182-19.5,60.941c-10.659,25.481-18.607,52.277-34.256,75.366 c-8.772,12.943-14.332,27.727-23.505,40.216c-19.728,26.858-37.325,55.181-57.6,81.679 c-36.916,48.248-74.021,96.317-112.526,143.323c-22.27,27.186-43.126,55.535-64.566,83.401 c-1.296,1.685-4.057,3.775-2.663,5.61c1.853,2.439,4.503-0.129,6.442-1.166c21.954-11.743,44.218-22.966,67.33-32.111 c18.27-7.229,35.534-16.484,53.538-24.198c8.331-3.569,15.663-9.16,24.397-12.246c45.244-15.985,90.359-32.336,135.546-48.482 c34.712-12.403,69.444-24.752,104.213-36.994c9.257-3.259,19.476-2.017,28.71-5.927c2.995-1.268,6.301-2.067,9.467-3.055 c2.765-0.863,6.025-5.238,8.836,0.295c0.172,0.339,2.444-0.304,3.706-0.62c6.416-1.609,12.817-3.28,19.234-4.888 c2.26-0.566,3.118-0.787,4.044,2.634c1.816,6.715-1.947,8.627-6.086,12.092c-8.251,6.909-18.725,8.701-27.546,13.57 c-14.251,7.866-29.108,14.107-43.799,20.844c-8.005,3.671-16.122,7.098-24.021,11.045 c24.605-7.525,47.633-19.543,73.206-25.947c-4.455,5.405-0.026,6.743,2.914,8.342c-1.32,3.277-4.409,4.28-6.1,6.534 c-1.249,1.663-4.88,2.278-2.189,6.19c1.596,2.321-2.407,3.14-4.133,4.022c-13.857,7.078-28.25,12.971-42.592,18.972 c-20.28,8.485-40.557,16.977-60.827,25.486c-0.995,0.418-1.905,1.037-2.725,2.22c5.256-0.303,10.187-2.58,15.479-2.596 c1.812-0.005,2.736-0.199,4.203,1.512c3.48,4.059,8.18,5.614,13.458,3.397c14.601-6.133,30.358-7.033,45.595-10.298 c3.641-0.78,6.947-3.098,10.585-3.93c13.075-2.993,25.124-8.674,37.388-13.803c5.217-2.182,9.858-1.928,14.078,3.59 c-6.12,3.083-12.098,6.85-18.585,9.224c-20.431,7.476-40.121,16.732-60.328,24.669c-11.949,4.694-24.102,9.027-35.799,14.278 c-10.355,4.649-20.001,10.879-30.451,16.684c3.581,2.71,7.119-0.963,9.859,2.451c-5.564,3.945-11.788,6.539-18.06,8.858 c-18.945,7.006-37.913,14.011-56.697,21.374c-17.957,7.039-35.851,14.361-53.666,21.821c-8.553,3.581-17.37,6.531-26.055,9.771 c1.607-3.112,4.267-5.181,8.634-7.437c-7.724,0.356-13.028,2.137-17.807,8.03C541.457,793.763,543.595,793.572,545.733,793.382 z M326.083,756.658c-10.602,10.176-18.196,22.597-26.098,34.788c9.613-10.93,18.616-22.314,25.941-34.942 c6.462-6.668,11.123-14.6,15.999-22.379C336.566,741.579,329.375,747.774,326.083,756.658z M297.611,279.051 c0.669-0.53,1.54-0.93,1.977-1.609c16.92-26.28,35.732-50.994,58.932-72.143c3.516-3.205,6.544-6.947,10.241-10.917 c-3.32,0.02-4.526,2.12-6.148,3.401c-9.299,7.343-17.363,16.003-25.021,24.951c-15.025,17.555-30.27,35.019-39.819,56.478 c-5.765,6.357-8.412,14.233-10.995,22.138C290.905,294.165,295.637,287.265,297.611,279.051z M317.483,276.696 c-9.825,13.149-18.809,26.924-22.352,43.551C304.555,306.842,309.866,291.236,317.483,276.696z M288.146,892.179 c0.466,0.606,0.932,1.212,1.399,1.817c14.097-9.339,28.194-18.679,42.292-28.018 C315.243,871.626,302.565,883.233,288.146,892.179z M421.282,154.577c-14.857,7.54-27.663,17.716-39.957,28.602 C394.534,173.42,408.423,164.626,421.282,154.577z M276.855,918.47c9.428-0.734,15.179-7.628,21.829-13.014 C290.359,908.039,282.992,912.224,276.855,918.47z M283.404,310.383c-8.799,14.516-12.788,34.122-8.47,42.094 C272.928,338.068,278.968,325.3,283.404,310.383z M226.174,940.944c6.274-5.68,14.006-9.675,18.802-16.827 C237.311,928.226,229.587,932.249,226.174,940.944z M449.784,140.09c11.405-4.839,22.809-9.679,34.214-14.518 C471.953,128.896,460.106,132.69,449.784,140.09z M543.419,343.542c4.076-7.387,8.846-13.723,8.135-23.065 C546.307,327.656,543.607,334.743,543.419,343.542z M592.412,209.573c0-6.379,0.468-12.817-0.326-19.095 c-0.201-1.586-1.887-3.935-2.66-6.159c-0.226,4.245-0.752,8.617,0.494,12.404C591.344,201.05,590.614,205.43,592.412,209.573z M364.756,845.782c-10.01,3.901-17.049,8.938-24.002,14.119C348.583,856.2,356.768,853.099,364.756,845.782z M374.033,840.354 c0.28,0.6,0.56,1.2,0.84,1.8c5.345-3.035,10.69-6.07,16.035-9.104c-0.208-0.361-0.415-0.723-0.623-1.084 C384.868,834.762,379.45,837.558,374.033,840.354z M561.855,784.37c4.432-0.635,6.93-2.637,7.845-6.968 C566.361,778.634,562.659,779.095,561.855,784.37z" transform="matrix(.99877 0 0 .99956 0 0)"/><path d="M454.574,167.609c3.238-2.874,6.404-5.914,12.512-6.602C462.877,165.308,458.857,166.713,454.574,167.609z" transform="matrix(.99877 0 0 .99956 0 0)"/></g></g></g></g></g></svg>