<?xml version="1.0" encoding="utf-8"?>
<!-- Generator: Adobe Illustrator 27.6.1, SVG Export Plug-In . SVG Version: 6.00 Build 0)  -->
<svg version="1.1" id="Calque_1" xmlns="http://www.w3.org/2000/svg" xmlns:xlink="http://www.w3.org/1999/xlink" x="0px" y="0px"
	 viewBox="0 0 35 35" style="enable-background:new 0 0 35 35;" xml:space="preserve">
<style type="text/css">
	.st0{fill:#251535;}
	.st1{fill:#AC89BE;}
</style>
<g>
	<path class="st0" d="M17.6,35.4c9.7,0,17.5-7.8,17.5-17.5S27.3,0.4,17.6,0.4S0.1,8.3,0.1,17.9S7.9,35.4,17.6,35.4z"/>
	<path class="st1" d="M7.4,17.8c0,0,8.8-3.6,11.8-4.9c1.2-0.5,5.1-2.1,5.1-2.1s1.8-0.7,1.7,1c-0.1,0.7-0.5,3.2-0.9,5.9
		c-0.6,3.8-1.3,7.9-1.3,7.9s-0.1,1.2-1,1.4c-0.9,0.2-2.3-0.7-2.5-0.9c-0.2-0.2-3.8-2.4-5.1-3.5c-0.4-0.3-0.8-0.9,0.1-1.6
		c1.8-1.7,4-3.7,5.3-5.1c0.6-0.6,1.2-2-1.3-0.3c-3.6,2.5-7.1,4.8-7.1,4.8s-0.8,0.5-2.3,0.1c-1.5-0.5-3.3-1.1-3.3-1.1
		S5.3,18.6,7.4,17.8L7.4,17.8z"/>
</g>
</svg>
