<?xml version="1.0" encoding="utf-8"?>
<!-- Generator: Adobe Illustrator 27.9.1, SVG Export Plug-In . SVG Version: 6.00 Build 0)  -->
<svg version="1.1" id="Calque_1" xmlns="http://www.w3.org/2000/svg" xmlns:xlink="http://www.w3.org/1999/xlink" x="0px" y="0px"
	 viewBox="0 0 1440.6 1440.6" style="enable-background:new 0 0 1440.6 1440.6;" xml:space="preserve">
<style type="text/css">
	.st0{fill:#302449;}
	.st1{fill:#EE7677;}
	.st2{fill:#473263;}
	.st3{fill:#F9B97D;}
	.st4{fill:#5C4281;}
	.st5{fill:#E0E47C;}
	.st6{fill:#67488B;}
	.st7{fill:#B8D378;}
	.st8{fill:#76519C;}
	.st9{fill:#A5DAEC;}
	.st10{fill:#865DA3;}
	.st11{fill:#BE9BC8;}
	.st12{fill:#9873B1;}
	.st13{fill:#FFFFFF;}
	.st14{fill:#291E49;}
	.st15{fill:#AC89BE;}
</style>
<g>
	<path class="st0" d="M395.7,1030.7l-190.4,190.4C81.6,1093.9,4.6,921.1,2,730.3h269.3C273.8,846.8,320.7,952.3,395.7,1030.7z"/>
	<path class="st1" d="M205.3,1224l-1.4-1.5C74.9,1089.9,2.5,915.1,0,730.3v-2h273.3v2c2.4,111.9,46.4,218.1,123.9,299.1l1.4,1.4
		L205.3,1224z M4.1,732.3c3,182.4,74.4,354.8,201.3,486L393,1030.7c-76.9-81-120.7-186.8-123.6-298.4L4.1,732.3L4.1,732.3z"/>
</g>
<g>
	<path class="st2" d="M710.3,1169.3v269.3c-190.8-2.6-363.6-79.6-490.8-203.3l190.4-190.4C488.3,1119.8,593.8,1166.7,710.3,1169.3z"
		/>
	<path class="st3" d="M712.3,1440.6h-2c-184.8-2.5-359.6-74.9-492.2-203.9l-1.5-1.4L409.8,1042l1.4,1.4
		c81,77.5,187.2,121.4,299.1,123.9h2V1440.6z M222.3,1235.2c131.2,126.9,303.6,198.3,486,201.3v-265.3
		c-111.5-2.9-217.4-46.7-298.4-123.6L222.3,1235.2z"/>
</g>
<g>
	<path class="st4" d="M1221.1,1235.2c-127.2,123.7-300,200.7-490.8,203.3v-269.3c116.5-2.5,222-49.4,300.4-124.4L1221.1,1235.2z"/>
	<path class="st5" d="M728.3,1440.6v-273.3h2c111.9-2.4,218.1-46.4,299.1-123.9l1.4-1.4l1.4,1.4l191.8,191.8l-1.5,1.4
		c-132.6,128.9-307.4,201.3-492.2,203.9L728.3,1440.6z M732.3,1171.2v265.3c182.4-3,354.8-74.4,486-201.3l-187.6-187.6
		C949.6,1124.5,843.8,1168.3,732.3,1171.2z"/>
</g>
<g>
	<path class="st6" d="M1438.5,730.3c-2.6,190.8-79.6,363.6-203.3,490.8l-190.4-190.4c75-78.4,121.9-183.9,124.4-300.4L1438.5,730.3
		L1438.5,730.3z"/>
	<path class="st7" d="M1235.3,1224l-1.4-1.4L1042,1030.7l1.4-1.4c77.5-81,121.4-187.2,123.9-299.1v-2h273.3v2
		c-2.5,184.8-74.9,359.6-203.9,492.2L1235.3,1224z M1047.6,1030.7l187.6,187.6c126.9-131.2,198.3-303.6,201.3-486h-265.3
		C1168.3,843.8,1124.5,949.6,1047.6,1030.7z"/>
</g>
<g>
	<path class="st8" d="M1438.5,710.3h-269.3c-1.8-81.6-25.3-157.8-65.1-223.1l227-144.9C1397.7,449.5,1436.7,575.4,1438.5,710.3z"/>
	<path class="st9" d="M1440.6,712.3h-273.3v-2c-1.7-78.5-24.1-155.3-64.8-222.1l-1-1.7l230.4-147l1.1,1.7
		c68.6,110.7,105.8,238.3,107.6,369V712.3z M1171.2,708.3h265.3c-2.1-128.6-38.7-254.1-105.9-363.2l-223.7,142.7
		C1147,554.3,1169.2,630.4,1171.2,708.3z"/>
</g>
<g>
	<path class="st10" d="M1320.5,325.5l-227,144.8c-78.9-117.5-211.8-195.7-363.2-199V2C977,5.4,1193.7,133.2,1320.5,325.5z"/>
	<path class="st11" d="M1092.9,473.1l-1.1-1.6c-81.1-120.9-216.3-195-361.5-198.1h-2V0h2c60.7,0.8,120.9,9.2,179,25
		c56.4,15.3,110.9,37.6,162.1,66.1c100.6,56.2,187.3,136.9,250.8,233.2l1.1,1.7L1092.9,473.1z M732.3,269.4
		C805,271.3,876.8,291,940,326.3c61.3,34.3,114.5,83.1,154,141.4L1317.7,325C1186.9,127.7,968.4,8,732.3,4.1V269.4z"/>
</g>
<g>
	<path class="st12" d="M710.3,2v269.3c-240.1,5.2-433.7,198.9-439,439H2C7.3,321.5,321.5,7.3,710.3,2z"/>
	<path class="st13" d="M273.3,712.3H0v-2c1.3-95.4,21-187.8,58.4-274.7c36.2-84,87.5-159.6,152.5-224.6S351.5,94.7,435.5,58.5
		C522.5,21,614.9,1.3,710.3,0h2v273.3h-2c-239.8,5.2-431.8,197.2-437,437V712.3z M4.1,708.3h265.3c3-115.9,49.8-224.9,132-307
		c82.1-82.1,191.1-128.9,307-132V4.1C319.2,10.4,10.4,319.2,4.1,708.3z"/>
</g>
<g>
	<path class="st14" d="M720.3,297.3c-233.6,0-423,189.4-423,423s189.4,423,423,423s423-189.4,423-423S953.9,297.3,720.3,297.3z
		 M720.3,1074.3c-195.5,0-354-158.5-354-354s158.5-354,354-354s354,158.5,354,354S915.8,1074.3,720.3,1074.3z"/>
	<path class="st15" d="M720.3,1145.3c-57.4,0-113-11.2-165.4-33.4c-50.6-21.4-96.1-52-135.1-91.1c-39-39-69.7-84.5-91.1-135.1
		c-22.2-52.4-33.4-108.1-33.4-165.4c0-57.4,11.2-113,33.4-165.4c21.4-50.6,52-96.1,91.1-135.1c39-39,84.5-69.7,135.1-91.1
		c52.4-22.2,108.1-33.4,165.4-33.4s113,11.2,165.4,33.4c50.6,21.4,96.1,52,135.1,91.1c39,39,69.7,84.5,91.1,135.1
		c22.2,52.4,33.4,108.1,33.4,165.4c0,57.4-11.2,113-33.4,165.4c-21.4,50.6-52,96.1-91.1,135.1c-39,39-84.5,69.7-135.1,91.1
		C833.3,1134,777.7,1145.3,720.3,1145.3z M720.3,299.3c-232.1,0-421,188.9-421,421s188.9,421,421,421s421-188.9,421-421
		S952.4,299.3,720.3,299.3z M720.3,1076.3c-48.1,0-94.7-9.4-138.6-28c-42.4-17.9-80.5-43.6-113.2-76.3s-58.4-70.8-76.3-113.2
		c-18.6-43.9-28-90.5-28-138.6s9.4-94.7,28-138.6c17.9-42.4,43.6-80.5,76.3-113.2s70.8-58.4,113.2-76.3c43.9-18.6,90.5-28,138.6-28
		s94.7,9.4,138.6,28c42.4,17.9,80.5,43.6,113.2,76.3s58.4,70.8,76.3,113.2c18.6,43.9,28,90.5,28,138.6s-9.4,94.7-28,138.6
		c-17.9,42.4-43.6,80.5-76.3,113.2s-70.8,58.4-113.2,76.3C815,1066.9,768.3,1076.3,720.3,1076.3z M720.3,368.3
		c-194.1,0-352,157.9-352,352s157.9,352,352,352s352-157.9,352-352S914.4,368.3,720.3,368.3z"/>
</g>
<g>
	<path class="st15" d="M541.2,638h-10.5c0.2,0.9,0.4,2.1,0.4,3.5c0,1.3-0.1,2.5-0.4,3.5c0.2,0.9,0.4,2.1,0.4,3.5
		c0,1.3-0.1,2.5-0.4,3.5c0.2,0.9,0.4,2.1,0.4,3.5c0,1.3-0.1,2.5-0.4,3.5c0.2,0.9,0.4,2.1,0.4,3.5c0,1.3-0.1,2.5-0.4,3.5
		c0.2,0.9,0.4,2.1,0.4,3.5c0,1.3-0.1,2.5-0.4,3.5c0.2,0.9,0.4,2.1,0.4,3.5c0,1.3-0.1,2.5-0.4,3.5h-7c-0.2-1-0.4-2.2-0.4-3.5
		c0-1.4,0.1-2.6,0.4-3.5c-0.2-1-0.4-2.2-0.4-3.5c0-1.4,0.1-2.6,0.4-3.5c-0.2-1-0.4-2.2-0.4-3.5c0-1.4,0.1-2.6,0.4-3.5
		c-0.2-1-0.4-2.2-0.4-3.5c0-1.4,0.1-2.6,0.4-3.5c-0.2-1-0.4-2.2-0.4-3.5c0-1.4,0.1-2.6,0.4-3.5c-0.2-1-0.4-2.2-0.4-3.5
		c0-1.4,0.1-2.6,0.4-3.5h-10.5c-0.2-1-0.4-2.2-0.4-3.5c0-1.4,0.1-2.6,0.4-3.5h28.1c0.2,0.9,0.4,2.1,0.4,3.5
		C541.5,635.9,541.4,637.1,541.2,638z"/>
	<path class="st15" d="M576.3,666.1h-2.6c0.2,0.9,0.4,2.1,0.4,3.5c0,1.3-0.1,2.5-0.4,3.5h-4.4c0.2,0.9,0.4,2.1,0.4,3.5
		c0,1.3-0.1,2.5-0.4,3.5h-14c-0.2-1-0.4-2.2-0.4-3.5c0-1.4,0.1-2.6,0.4-3.5h-4.4c-0.2-1-0.4-2.2-0.4-3.5c0-1.4,0.1-2.6,0.4-3.5h-2.6
		c-0.2-1-0.4-2.2-0.4-3.5c0-1.4,0.1-2.6,0.4-3.5h2.6c-0.2-1-0.4-2.2-0.4-3.5c0-1.4,0.1-2.6,0.4-3.5h4.4c-0.2-1-0.4-2.2-0.4-3.5
		c0-1.4,0.1-2.6,0.4-3.5h14c0.2,0.9,0.4,2.1,0.4,3.5c0,1.3-0.1,2.5-0.4,3.5h4.4c0.2,0.9,0.4,2.1,0.4,3.5c0,1.3-0.1,2.5-0.4,3.5h2.6
		c0.2,0.9,0.4,2.1,0.4,3.5S576.5,665.1,576.3,666.1z M569.3,666.1c-0.2-1-0.4-2.2-0.4-3.5c0-1.4,0.1-2.6,0.4-3.5h-2.6
		c-0.2-1-0.4-2.2-0.4-3.5c0-1.4,0.1-2.6,0.4-3.5h-8.8c0.2,0.9,0.4,2.1,0.4,3.5c0,1.3-0.1,2.5-0.4,3.5h-2.6c0.2,0.9,0.4,2.1,0.4,3.5
		c0,1.3-0.1,2.5-0.4,3.5h2.6c0.2,0.9,0.4,2.1,0.4,3.5c0,1.3-0.1,2.5-0.4,3.5h8.8c-0.2-1-0.4-2.2-0.4-3.5c0-1.4,0.1-2.6,0.4-3.5
		H569.3z"/>
	<path class="st15" d="M607.9,673.2c0.2,0.9,0.4,2.1,0.4,3.5c0,1.3-0.1,2.5-0.4,3.5h-14c-0.2-1-0.4-2.2-0.4-3.5
		c0-1.4,0.1-2.6,0.4-3.5h-3.5c-0.2-1-0.4-2.2-0.4-3.5c0-1.4,0.1-2.6,0.4-3.5c-0.2-1-0.4-2.2-0.4-3.5c0-1.4,0.1-2.6,0.4-3.5
		c-0.2-1-0.4-2.2-0.4-3.5c0-1.4,0.1-2.6,0.4-3.5h-7c-0.2-1-0.4-2.2-0.4-3.5c0-1.4,0.1-2.6,0.4-3.5h7c-0.2-1-0.4-2.2-0.4-3.5
		c0-1.4,0.1-2.6,0.4-3.5c-0.2-1-0.4-2.2-0.4-3.5c0-1.4,0.1-2.6,0.4-3.5h7c0.2,0.9,0.4,2.1,0.4,3.5c0,1.3-0.1,2.5-0.4,3.5
		c0.2,0.9,0.4,2.1,0.4,3.5c0,1.3-0.1,2.5-0.4,3.5h10.5c0.2,0.9,0.4,2.1,0.4,3.5c0,1.3-0.1,2.5-0.4,3.5h-10.5
		c0.2,0.9,0.4,2.1,0.4,3.5c0,1.3-0.1,2.5-0.4,3.5c0.2,0.9,0.4,2.1,0.4,3.5c0,1.3-0.1,2.5-0.4,3.5c0.2,0.9,0.4,2.1,0.4,3.5
		c0,1.3-0.1,2.5-0.4,3.5H607.9z"/>
	<path class="st15" d="M646.9,676.7c0,1.3-0.1,2.5-0.4,3.5h-7c-0.2-1-0.4-2.2-0.4-3.5c0-1.4,0.1-2.6,0.4-3.5H636
		c-0.2-1-0.4-2.2-0.4-3.5c0-1.4,0.1-2.6,0.4-3.5h-10.5c0.2,0.9,0.4,2.1,0.4,3.5c0,1.3-0.1,2.5-0.4,3.5H636c0.2,0.9,0.4,2.1,0.4,3.5
		c0,1.3-0.1,2.5-0.4,3.5h-14c-0.2-1-0.4-2.2-0.4-3.5c0-1.4,0.1-2.6,0.4-3.5h-3.5c-0.2-1-0.4-2.2-0.4-3.5c0-1.4,0.1-2.6,0.4-3.5h3.5
		c-0.2-1-0.4-2.2-0.4-3.5c0-1.4,0.1-2.6,0.4-3.5h14c-0.2-1-0.4-2.2-0.4-3.5c0-1.4,0.1-2.6,0.4-3.5h-12.3c-0.2-1-0.4-2.2-0.4-3.5
		c0-1.4,0.1-2.6,0.4-3.5h15.8c0.2,0.9,0.4,2.1,0.4,3.5c0,1.3-0.1,2.5-0.4,3.5h3.5c0.2,0.9,0.4,2.1,0.4,3.5c0,1.3-0.1,2.5-0.4,3.5
		c0.2,0.9,0.4,2.1,0.4,3.5c0,1.3-0.1,2.5-0.4,3.5c0.2,0.9,0.4,2.1,0.4,3.5c0,1.3-0.1,2.5-0.4,3.5h3.5
		C646.8,674.1,646.9,675.3,646.9,676.7z"/>
	<path class="st15" d="M678.5,676.7c0,1.3-0.1,2.5-0.4,3.5H657c-0.2-1-0.4-2.2-0.4-3.5c0-1.4,0.1-2.6,0.4-3.5h7
		c-0.2-1-0.4-2.2-0.4-3.5c0-1.4,0.1-2.6,0.4-3.5c-0.2-1-0.4-2.2-0.4-3.5c0-1.4,0.1-2.6,0.4-3.5c-0.2-1-0.4-2.2-0.4-3.5
		c0-1.4,0.1-2.6,0.4-3.5c-0.2-1-0.4-2.2-0.4-3.5c0-1.4,0.1-2.6,0.4-3.5c-0.2-1-0.4-2.2-0.4-3.5c0-1.4,0.1-2.6,0.4-3.5h-5.3
		c-0.2-1-0.4-2.2-0.4-3.5c0-1.4,0.1-2.6,0.4-3.5H671c0.2,0.9,0.4,2.1,0.4,3.5c0,1.3-0.1,2.5-0.4,3.5c0.2,0.9,0.4,2.1,0.4,3.5
		c0,1.3-0.1,2.5-0.4,3.5c0.2,0.9,0.4,2.1,0.4,3.5c0,1.3-0.1,2.5-0.4,3.5c0.2,0.9,0.4,2.1,0.4,3.5c0,1.3-0.1,2.5-0.4,3.5
		c0.2,0.9,0.4,2.1,0.4,3.5c0,1.3-0.1,2.5-0.4,3.5c0.2,0.9,0.4,2.1,0.4,3.5c0,1.3-0.1,2.5-0.4,3.5h7
		C678.4,674.1,678.5,675.3,678.5,676.7z"/>
	<path class="st15" d="M752.2,662.6c0,1.3-0.1,2.5-0.4,3.5c0.2,0.9,0.4,2.1,0.4,3.5c0,1.3-0.1,2.5-0.4,3.5h-3.5
		c0.2,0.9,0.4,2.1,0.4,3.5c0,1.3-0.1,2.5-0.4,3.5h-21.1c-0.2-1-0.4-2.2-0.4-3.5c0-1.4,0.1-2.6,0.4-3.5h-3.5c-0.2-1-0.4-2.2-0.4-3.5
		c0-1.4,0.1-2.6,0.4-3.5h7c0.2,0.9,0.4,2.1,0.4,3.5c0,1.3-0.1,2.5-0.4,3.5h14c-0.2-1-0.4-2.2-0.4-3.5c0-1.4,0.1-2.6,0.4-3.5
		c-0.2-1-0.4-2.2-0.4-3.5c0-1.4,0.1-2.6,0.4-3.5h-17.6c-0.2-1-0.4-2.2-0.4-3.5c0-1.4,0.1-2.6,0.4-3.5h-3.5c-0.2-1-0.4-2.2-0.4-3.5
		c0-1.4,0.1-2.6,0.4-3.5c-0.2-1-0.4-2.2-0.4-3.5c0-1.4,0.1-2.6,0.4-3.5h3.5c-0.2-1-0.4-2.2-0.4-3.5c0-1.4,0.1-2.6,0.4-3.5h21.1
		c0.2,0.9,0.4,2.1,0.4,3.5c0,1.3-0.1,2.5-0.4,3.5h3.5c0.2,0.9,0.4,2.1,0.4,3.5c0,1.3-0.1,2.5-0.4,3.5h-7c-0.2-1-0.4-2.2-0.4-3.5
		c0-1.4,0.1-2.6,0.4-3.5h-14c0.2,0.9,0.4,2.1,0.4,3.5c0,1.3-0.1,2.5-0.4,3.5c0.2,0.9,0.4,2.1,0.4,3.5c0,1.3-0.1,2.5-0.4,3.5h17.6
		c0.2,0.9,0.4,2.1,0.4,3.5c0,1.3-0.1,2.5-0.4,3.5h3.5C752.1,660.1,752.2,661.2,752.2,662.6z"/>
	<path class="st15" d="M768.6,673.2h8.8c0.2,0.9,0.4,2.1,0.4,3.5c0,1.3-0.1,2.5-0.4,3.5h-14c-0.2-1-0.4-2.2-0.4-3.5
		c0-1.4,0.1-2.6,0.4-3.5H759c-0.2-1-0.4-2.2-0.4-3.5c0-1.4,0.1-2.6,0.4-3.5c-0.2-1-0.4-2.2-0.4-3.5c0-1.4,0.1-2.6,0.4-3.5
		c-0.2-1-0.4-2.2-0.4-3.5c0-1.4,0.1-2.6,0.4-3.5c-0.2-1-0.4-2.2-0.4-3.5c0-1.4,0.1-2.6,0.4-3.5h7c0.2,0.9,0.4,2.1,0.4,3.5
		c0,1.3-0.1,2.5-0.4,3.5c0.2,0.9,0.4,2.1,0.4,3.5c0,1.3-0.1,2.5-0.4,3.5c0.2,0.9,0.4,2.1,0.4,3.5c0,1.3-0.1,2.5-0.4,3.5h2.6
		c0.2,0.9,0.4,2.1,0.4,3.5C768.9,671,768.8,672.2,768.6,673.2z M787.4,655.6c0,1.3-0.1,2.5-0.4,3.5c0.2,0.9,0.4,2.1,0.4,3.5
		c0,1.3-0.1,2.5-0.4,3.5c0.2,0.9,0.4,2.1,0.4,3.5c0,1.3-0.1,2.5-0.4,3.5c0.2,0.9,0.4,2.1,0.4,3.5c0,1.3-0.1,2.5-0.4,3.5h-7
		c-0.2-1-0.4-2.2-0.4-3.5c0-1.4,0.1-2.6,0.4-3.5h-2.6c-0.2-1-0.4-2.2-0.4-3.5c0-1.4,0.1-2.6,0.4-3.5h2.6c-0.2-1-0.4-2.2-0.4-3.5
		c0-1.4,0.1-2.6,0.4-3.5c-0.2-1-0.4-2.2-0.4-3.5c0-1.4,0.1-2.6,0.4-3.5c-0.2-1-0.4-2.2-0.4-3.5c0-1.4,0.1-2.6,0.4-3.5h7
		c0.2,0.9,0.4,2.1,0.4,3.5c0,1.3-0.1,2.5-0.4,3.5C787.2,653,787.4,654.2,787.4,655.6z"/>
	<path class="st15" d="M822.1,666.1h-3.5c0.2,0.9,0.4,2.1,0.4,3.5c0,1.3-0.1,2.5-0.4,3.5h-3.5c0.2,0.9,0.4,2.1,0.4,3.5
		c0,1.3-0.1,2.5-0.4,3.5h-14c0.2,0.9,0.4,2.1,0.4,3.5c0,1.3-0.1,2.5-0.4,3.5c0.2,0.9,0.4,2.1,0.4,3.5c0,1.3-0.1,2.5-0.4,3.5h-7
		c-0.2-1-0.4-2.2-0.4-3.5c0-1.4,0.1-2.6,0.4-3.5c-0.2-1-0.4-2.2-0.4-3.5c0-1.4,0.1-2.6,0.4-3.5c-0.2-1-0.4-2.2-0.4-3.5
		c0-1.4,0.1-2.6,0.4-3.5c-0.2-1-0.4-2.2-0.4-3.5c0-1.4,0.1-2.6,0.4-3.5c-0.2-1-0.4-2.2-0.4-3.5c0-1.4,0.1-2.6,0.4-3.5
		c-0.2-1-0.4-2.2-0.4-3.5c0-1.4,0.1-2.6,0.4-3.5c-0.2-1-0.4-2.2-0.4-3.5c0-1.4,0.1-2.6,0.4-3.5h7c0.2,0.9,0.4,2.1,0.4,3.5
		c0,1.3-0.1,2.5-0.4,3.5h3.5c0.2,0.9,0.4,2.1,0.4,3.5c0,1.3-0.1,2.5-0.4,3.5h-3.5c0.2,0.9,0.4,2.1,0.4,3.5c0,1.3-0.1,2.5-0.4,3.5
		c0.2,0.9,0.4,2.1,0.4,3.5c0,1.3-0.1,2.5-0.4,3.5h10.5c-0.2-1-0.4-2.2-0.4-3.5c0-1.4,0.1-2.6,0.4-3.5h3.5c-0.2-1-0.4-2.2-0.4-3.5
		c0-1.4,0.1-2.6,0.4-3.5h-3.5c-0.2-1-0.4-2.2-0.4-3.5c0-1.4,0.1-2.6,0.4-3.5h-7c-0.2-1-0.4-2.2-0.4-3.5c0-1.4,0.1-2.6,0.4-3.5h10.5
		c0.2,0.9,0.4,2.1,0.4,3.5c0,1.3-0.1,2.5-0.4,3.5h3.5c0.2,0.9,0.4,2.1,0.4,3.5c0,1.3-0.1,2.5-0.4,3.5h3.5c0.2,0.9,0.4,2.1,0.4,3.5
		S822.4,665.1,822.1,666.1z"/>
	<path class="st15" d="M857.2,666.1h-3.5c0.2,0.9,0.4,2.1,0.4,3.5c0,1.3-0.1,2.5-0.4,3.5h-3.5c0.2,0.9,0.4,2.1,0.4,3.5
		c0,1.3-0.1,2.5-0.4,3.5h-14c0.2,0.9,0.4,2.1,0.4,3.5c0,1.3-0.1,2.5-0.4,3.5c0.2,0.9,0.4,2.1,0.4,3.5c0,1.3-0.1,2.5-0.4,3.5h-7
		c-0.2-1-0.4-2.2-0.4-3.5c0-1.4,0.1-2.6,0.4-3.5c-0.2-1-0.4-2.2-0.4-3.5c0-1.4,0.1-2.6,0.4-3.5c-0.2-1-0.4-2.2-0.4-3.5
		c0-1.4,0.1-2.6,0.4-3.5c-0.2-1-0.4-2.2-0.4-3.5c0-1.4,0.1-2.6,0.4-3.5c-0.2-1-0.4-2.2-0.4-3.5c0-1.4,0.1-2.6,0.4-3.5
		c-0.2-1-0.4-2.2-0.4-3.5c0-1.4,0.1-2.6,0.4-3.5c-0.2-1-0.4-2.2-0.4-3.5c0-1.4,0.1-2.6,0.4-3.5h7c0.2,0.9,0.4,2.1,0.4,3.5
		c0,1.3-0.1,2.5-0.4,3.5h3.5c0.2,0.9,0.4,2.1,0.4,3.5c0,1.3-0.1,2.5-0.4,3.5h-3.5c0.2,0.9,0.4,2.1,0.4,3.5c0,1.3-0.1,2.5-0.4,3.5
		c0.2,0.9,0.4,2.1,0.4,3.5c0,1.3-0.1,2.5-0.4,3.5h10.5c-0.2-1-0.4-2.2-0.4-3.5c0-1.4,0.1-2.6,0.4-3.5h3.5c-0.2-1-0.4-2.2-0.4-3.5
		c0-1.4,0.1-2.6,0.4-3.5h-3.5c-0.2-1-0.4-2.2-0.4-3.5c0-1.4,0.1-2.6,0.4-3.5h-7c-0.2-1-0.4-2.2-0.4-3.5c0-1.4,0.1-2.6,0.4-3.5h10.5
		c0.2,0.9,0.4,2.1,0.4,3.5c0,1.3-0.1,2.5-0.4,3.5h3.5c0.2,0.9,0.4,2.1,0.4,3.5c0,1.3-0.1,2.5-0.4,3.5h3.5c0.2,0.9,0.4,2.1,0.4,3.5
		C857.6,664,857.5,665.1,857.2,666.1z"/>
	<path class="st15" d="M889.2,676.7c0,1.3-0.1,2.5-0.4,3.5h-21.1c-0.2-1-0.4-2.2-0.4-3.5c0-1.4,0.1-2.6,0.4-3.5h7
		c-0.2-1-0.4-2.2-0.4-3.5c0-1.4,0.1-2.6,0.4-3.5c-0.2-1-0.4-2.2-0.4-3.5c0-1.4,0.1-2.6,0.4-3.5c-0.2-1-0.4-2.2-0.4-3.5
		c0-1.4,0.1-2.6,0.4-3.5c-0.2-1-0.4-2.2-0.4-3.5c0-1.4,0.1-2.6,0.4-3.5c-0.2-1-0.4-2.2-0.4-3.5c0-1.4,0.1-2.6,0.4-3.5h-5.3
		c-0.2-1-0.4-2.2-0.4-3.5c0-1.4,0.1-2.6,0.4-3.5h12.3c0.2,0.9,0.4,2.1,0.4,3.5c0,1.3-0.1,2.5-0.4,3.5c0.2,0.9,0.4,2.1,0.4,3.5
		c0,1.3-0.1,2.5-0.4,3.5c0.2,0.9,0.4,2.1,0.4,3.5c0,1.3-0.1,2.5-0.4,3.5c0.2,0.9,0.4,2.1,0.4,3.5c0,1.3-0.1,2.5-0.4,3.5
		c0.2,0.9,0.4,2.1,0.4,3.5c0,1.3-0.1,2.5-0.4,3.5c0.2,0.9,0.4,2.1,0.4,3.5c0,1.3-0.1,2.5-0.4,3.5h7
		C889.1,674.1,889.2,675.3,889.2,676.7z"/>
	<path class="st15" d="M927.5,652.1h-2.6c0.2,0.9,0.4,2.1,0.4,3.5c0,1.3-0.1,2.5-0.4,3.5h-2.6c0.2,0.9,0.4,2.1,0.4,3.5
		c0,1.3-0.1,2.5-0.4,3.5h-1.8c0.2,0.9,0.4,2.1,0.4,3.5c0,1.3-0.1,2.5-0.4,3.5h-2.6c0.2,0.9,0.4,2.1,0.4,3.5c0,1.3-0.1,2.5-0.4,3.5
		h-1.8c0.2,0.9,0.4,2.1,0.4,3.5c0,1.3-0.1,2.5-0.4,3.5h-3.5c0.2,0.9,0.4,2.1,0.4,3.5c0,1.3-0.1,2.5-0.4,3.5H902
		c-0.2-1-0.4-2.2-0.4-3.5c0-1.4,0.1-2.6,0.4-3.5h7c-0.2-1-0.4-2.2-0.4-3.5c0-1.4,0.1-2.6,0.4-3.5c-0.2-1-0.4-2.2-0.4-3.5
		c0-1.4,0.1-2.6,0.4-3.5h-3.5c-0.2-1-0.4-2.2-0.4-3.5c0-1.4,0.1-2.6,0.4-3.5h-1.8c-0.2-1-0.4-2.2-0.4-3.5c0-1.4,0.1-2.6,0.4-3.5
		h-2.6c-0.2-1-0.4-2.2-0.4-3.5c0-1.4,0.1-2.6,0.4-3.5h-2.6c-0.2-1-0.4-2.2-0.4-3.5c0-1.4,0.1-2.6,0.4-3.5h7c0.2,0.9,0.4,2.1,0.4,3.5
		c0,1.3-0.1,2.5-0.4,3.5h2.6c0.2,0.9,0.4,2.1,0.4,3.5c0,1.3-0.1,2.5-0.4,3.5h2.6c0.2,0.9,0.4,2.1,0.4,3.5c0,1.3-0.1,2.5-0.4,3.5
		c0.2,0.9,0.4,2.1,0.4,3.5c0,1.3-0.1,2.5-0.4,3.5h2.6c-0.2-1-0.4-2.2-0.4-3.5c0-1.4,0.1-2.6,0.4-3.5h1.8c-0.2-1-0.4-2.2-0.4-3.5
		c0-1.4,0.1-2.6,0.4-3.5h2.6c-0.2-1-0.4-2.2-0.4-3.5c0-1.4,0.1-2.6,0.4-3.5h2.6c-0.2-1-0.4-2.2-0.4-3.5c0-1.4,0.1-2.6,0.4-3.5h7
		c0.2,0.9,0.4,2.1,0.4,3.5C927.8,649.9,927.7,651.1,927.5,652.1z"/>
</g>
<g>
	<path class="st15" d="M503.3,737.9h6.2v-6.2h12.4v37.2h12.4v6.2h-37.2v-6.2h12.4v-24.8h-6.2V737.9z"/>
	<path class="st15" d="M559.1,731.7h37.2v6.2h-12.4v37.2h-12.4v-37.2h-12.4V731.7z"/>
	<path class="st15" d="M602.5,731.7h37.2v6.2h6.2v18.6h-12.4v6.2h6.2v6.2h6.2v6.2h-18.6v-6.2h-6.2v-6.2h-6.2v12.4h-12.4V731.7z
		 M614.9,737.9v18.6h12.4v-6.2h6.2v-12.4H614.9z"/>
	<path class="st15" d="M658.3,731.7h37.2v6.2h-12.4v31h12.4v6.2h-37.2v-6.2h12.4v-31h-12.4V731.7z"/>
	<path class="st15" d="M701.7,731.7h12.4v37.2h31v6.2h-43.4V731.7z"/>
	<path class="st15" d="M751.3,731.7h12.4v37.2h31v6.2h-43.4V731.7z"/>
	<path class="st15" d="M807.1,731.7h37.2v6.2h-12.4v31h12.4v6.2h-37.2v-6.2h12.4v-31h-12.4V731.7z"/>
	<path class="st15" d="M856.7,731.7h31v6.2h6.2v31h-6.2v6.2h-31v-6.2h-6.2v-31h6.2V731.7z M862.9,737.9v31h18.6v-31H862.9z"/>
	<path class="st15" d="M900.1,731.7h12.4v6.2h6.2v6.2h6.2v6.2h6.2v-18.6h12.4v43.4h-12.4v-6.2h-6.2v-6.2h-6.2v-6.2h-6.2v18.6h-12.4
		V731.7z"/>
</g>
<g>

</g>
</svg>
