<?xml version="1.0" encoding="utf-8"?>
<!-- Generator: Adobe Illustrator 27.6.1, SVG Export Plug-In . SVG Version: 6.00 Build 0)  -->
<svg version="1.1" id="Calque_1" xmlns="http://www.w3.org/2000/svg" xmlns:xlink="http://www.w3.org/1999/xlink" x="0px" y="0px"
	 viewBox="0 0 35 35" style="enable-background:new 0 0 35 35;" xml:space="preserve">
<style type="text/css">
	.st0{fill:#251535;}
	.st1{fill:#AC89BE;}
</style>
<g>
	<path class="st0" d="M17.5,35C27.2,35,35,27.2,35,17.5S27.2,0,17.5,0S0,7.8,0,17.5S7.8,35,17.5,35z"/>
	<g id="XMLID_00000057148081560597792040000012440354652288675228_">
		<path id="XMLID_00000025432923849568329370000012829753893249122700_" class="st1" d="M27.1,11.2c-0.3,0.1-0.6,0.3-1,0.4
			c0.4-0.4,0.7-1,0.9-1.5c0-0.1,0-0.3-0.1-0.4c-0.1-0.1-0.3-0.1-0.4,0c-0.7,0.4-1.5,0.7-2.3,0.9c-0.8-0.8-1.9-1.2-3-1.2
			c-2.4,0-4.3,1.9-4.3,4.3c0,0.2,0,0.4,0,0.6c-3-0.3-5.7-1.7-7.6-4C9.3,10,9.2,10,9.1,10c-0.1,0-0.2,0.1-0.3,0.2
			c-0.4,0.7-0.6,1.4-0.6,2.2c0,1,0.4,2,1,2.8c-0.2-0.1-0.4-0.2-0.6-0.3c-0.1-0.1-0.2-0.1-0.3,0c-0.1,0.1-0.2,0.2-0.2,0.3
			c0,0,0,0,0,0.1c0,1.6,0.8,3,2.1,3.7c-0.1,0-0.2,0-0.3,0c-0.1,0-0.2,0-0.3,0.1c-0.1,0.1-0.1,0.2-0.1,0.3c0.5,1.5,1.7,2.6,3.2,2.9
			c-1.2,0.8-2.6,1.2-4.1,1.2c-0.3,0-0.6,0-0.9-0.1c-0.1,0-0.3,0.1-0.3,0.2c-0.1,0.1,0,0.3,0.1,0.4c1.9,1.2,4.1,1.8,6.3,1.8
			c4.4,0,7.1-2.1,8.7-3.8c1.9-2.2,3-5,3-7.9c0-0.1,0-0.2,0-0.4c0.8-0.6,1.4-1.3,1.9-2c0.1-0.1,0.1-0.3,0-0.4
			C27.4,11.1,27.2,11.1,27.1,11.2z"/>
	</g>
</g>
</svg>
